<?xml version="1.0" encoding="utf-8"?>
<!-- Generator: Adobe Illustrator 27.5.0, SVG Export Plug-In . SVG Version: 6.00 Build 0)  -->
<svg version="1.1" xmlns="http://www.w3.org/2000/svg" xmlns:xlink="http://www.w3.org/1999/xlink" x="0px" y="0px"
	 viewBox="0 0 3710 3710" style="enable-background:new 0 0 3710 3710;" xml:space="preserve">
<g id="Background">
	<g>
		<g>
			<rect style="fill:#FFFFFF;" width="3710" height="3710"/>
		</g>
	</g>
</g>
<g id="Illustration">
	<g>
		<path style="fill:#F4F7FA;" d="M1675.281,369.63C1280.4,376.026,669.443,513.695,493.587,867.479
			c-61.42,123.564-57.261,305.216-48.946,668.522c2.444,106.785,6.497,262.426,34.961,455.541
			c59.129,401.162,99.38,674.258,251.722,833.278c381.721,398.455,1760.588,386.941,2349.403-330.408
			c321.202-391.319,370.616-947.982,76.915-1408.037C2834.284,579.864,2203.933,361.068,1675.281,369.63z"/>
		<g>
			<g>
				<g>
					<path style="fill:#BFC8D6;" d="M3008.703,3000.667l-2404.014-20.78v61.484c0,16.688,10.485,30.878,24.686,33.407
						l679.784,121.073c8.067,1.437,16.249,1.818,24.389,1.136l1649.031-138.043c14.722-1.232,26.125-15.466,26.125-32.612V3000.667z
						"/>
					<g>
						<path style="fill:#BFC8D6;" d="M2124.022,2902.136L596.077,3014.614c-27.341,2.012-49.572-19.374-49.572-47.774V1829.023
							c0-28.4,22.231-51.423,49.572-51.423h1527.945c22.525,0,40.738,20.812,40.738,46.486v1028.566
							C2164.76,2878.324,2146.547,2900.478,2124.022,2902.136z"/>
						<path style="fill:#FFFFFF;" d="M2148.385,2902.136L620.44,3014.614c-27.342,2.012-49.573-19.374-49.573-47.774V1829.023
							c0-28.4,22.23-51.423,49.573-51.423h1527.945c22.526,0,40.738,20.812,40.738,46.486v1028.566
							C2189.123,2878.324,2170.911,2900.478,2148.385,2902.136z"/>
						<path style="fill:#D8DEE8;" d="M2100.785,2829.62l-1423.121,97.702c-22.25,1.528-40.331-16.026-40.331-39.211v-996.16
							c0-23.185,18.081-42.058,40.331-42.154l1423.121-6.135c18.582-0.08,33.612,16.974,33.612,38.092v907.324
							C2134.397,2810.194,2119.367,2828.345,2100.785,2829.62z"/>
						<path style="fill:#FFFFFF;" d="M1438.375,1808.722c0,10.572-7.864,19.168-17.576,19.198
							c-9.724,0.031-17.614-8.534-17.614-19.13c0-10.596,7.891-19.192,17.614-19.199
							C1430.511,1789.584,1438.375,1798.149,1438.375,1808.722z"/>
						<path style="opacity:0.48;fill:#FFFFFF;" d="M620.434,3014.615l1520.215-111.909l7.736-0.569
							c10.335-0.761,19.733-5.87,26.911-13.62c-109.396-5.987-177.344-44.809-221.176-84.923
							c-88.023-80.558-72.755-160-167.677-212.965c-118.393-66.064-211.486,17.646-301.328-64.946
							c-54.466-50.074-27.726-87.414-94.747-162.242c-74.231-82.879-122.559-55.02-197.161-129.611
							c-94.327-94.316-47.151-167.697-128.402-235.412c-98.57-82.15-204.872-6.115-298.703-84.899
							c-40.47-33.98-62.677-83.38-74.272-135.918h-71.39c-27.342,0-49.573,23.023-49.573,51.423V2966.84
							C570.868,2995.238,593.094,3016.623,620.434,3014.615z"/>
					</g>
					<linearGradient id="SVGID_1_" gradientUnits="userSpaceOnUse" x1="604.6883" y1="3018.3965" x2="3008.7026" y2="3018.3965">
						<stop  offset="0.494" style="stop-color:#EBEFF2"/>
						<stop  offset="1" style="stop-color:#FFFFFF"/>
					</linearGradient>
					<path style="fill:url(#SVGID_1_);" d="M2220.375,2895.897L604.688,3014.291l704.47,125.47
						c8.067,1.437,16.249,1.818,24.389,1.137l1675.156-140.231l-762.626-103.966
						C2237.548,2895.539,2228.946,2895.269,2220.375,2895.897z"/>
					<polygon style="fill:#D8DEE8;" points="840.442,3015.309 2185.55,2915.274 2601.848,2971.569 1268.328,3078.503 					"/>
				</g>
			</g>
		</g>
		<g>
			<g>
				<g>
					<g>
						
							<linearGradient id="SVGID_00000180367000322763612630000009897993935653452706_" gradientUnits="userSpaceOnUse" x1="1252.0652" y1="849.6867" x2="1439.6151" y2="2545.1289">
							<stop  offset="0" style="stop-color:#311944"/>
							<stop  offset="1" style="stop-color:#893976"/>
						</linearGradient>
						<path style="fill:url(#SVGID_00000180367000322763612630000009897993935653452706_);" d="M1408.169,1646.743l61.469-0.335
							c0,0,66.32-194.071,246.748-194.983l9.219-520.572c-381.092,1.265-717.428,214.245-870.601,529.027L1408.169,1646.743z"/>
						
							<linearGradient id="SVGID_00000000222961771300476960000012392749056721568922_" gradientUnits="userSpaceOnUse" x1="1947.1138" y1="2188.1716" x2="2678.9841" y2="3666.4065">
							<stop  offset="0" style="stop-color:#311944"/>
							<stop  offset="1" style="stop-color:#893976"/>
						</linearGradient>
						<path style="fill:url(#SVGID_00000000222961771300476960000012392749056721568922_);" d="M2143.348,1877.448
							c-31.243,171.043-188.329,305.516-380.777,311.452c-47.377,1.461-102.615-26.701-102.615-26.701s-50.67,2.764-59.345-0.59
							l-300.397,461.339c139.626,62.521,297.362,93.151,462.357,83.749c479.819-27.342,857.062-385.619,898.958-816.937
							L2143.348,1877.448z"/>
						
							<linearGradient id="SVGID_00000129896469991654149760000007640533413473060798_" gradientUnits="userSpaceOnUse" x1="786.6335" y1="1566.1021" x2="1861.7146" y2="2948.3484">
							<stop  offset="0" style="stop-color:#311944"/>
							<stop  offset="1" style="stop-color:#893976"/>
						</linearGradient>
						<path style="fill:url(#SVGID_00000129896469991654149760000007640533413473060798_);" d="M1206.187,2574.417l60.098,2.06
							l243.056-464.762c-90.681-66.596-148.959-170.229-148.959-287.772c0-28.401,3.436-56.093,9.899-82.748L875.221,1555.87
							l-60.214,0.699c-29.824,86.719-45.926,178.989-45.926,274.573C769.081,2147.656,944.162,2420.164,1206.187,2574.417z"/>
					</g>
					<g>
						
							<linearGradient id="SVGID_00000088826321226423076370000002022030872320745149_" gradientUnits="userSpaceOnUse" x1="2894.2104" y1="609.5031" x2="2180.3586" y2="1604.9663">
							<stop  offset="0" style="stop-color:#311944"/>
							<stop  offset="1" style="stop-color:#893976"/>
						</linearGradient>
						<path style="fill:url(#SVGID_00000088826321226423076370000002022030872320745149_);" d="M1821.421,1453.69
							c175.253,25.867,310.003,160.579,326.01,327.062l847.355,24.355c0-0.178,0.002-0.355,0.003-0.533c0,0,0.002-0.271,0.003-0.533
							c0.004-0.632,127.741-20.375,127.74-20.455c-0.04-5.761-1157.548-1212.657-1157.548-1212.657l-128.385,20.926
							C1836.601,591.856,1826.48,1166.412,1821.421,1453.69z"/>
					</g>
				</g>
				<g>
					<g>
						
							<linearGradient id="SVGID_00000032609598094948156560000016325257337454971781_" gradientUnits="userSpaceOnUse" x1="1312.8274" y1="850.8633" x2="1498.6279" y2="2530.4905">
							<stop  offset="0" style="stop-color:#FFC444"/>
							<stop  offset="0.9964" style="stop-color:#F36F56"/>
						</linearGradient>
						<path style="fill:url(#SVGID_00000032609598094948156560000016325257337454971781_);" d="M1468.801,1646.743
							c61.37-106.495,175.548-181.701,308.217-195.317l9.219-520.572c-381.092,1.265-717.427,214.245-870.601,529.027
							L1468.801,1646.743z"/>
						
							<linearGradient id="SVGID_00000161619591113618793210000009801725519023459724_" gradientUnits="userSpaceOnUse" x1="2007.7458" y1="2188.1716" x2="2739.6162" y2="3666.4065">
							<stop  offset="0.0036" style="stop-color:#E38DDD"/>
							<stop  offset="1" style="stop-color:#9571F6"/>
						</linearGradient>
						<path style="fill:url(#SVGID_00000161619591113618793210000009801725519023459724_);" d="M2203.98,1877.448
							c-31.243,171.043-188.329,305.516-380.777,311.452c-57.383,1.77-112.212-8.056-161.96-27.291l-300.397,461.339
							c139.626,62.521,297.362,93.151,462.357,83.749c479.819-27.342,857.062-385.619,898.958-816.937L2203.98,1877.448z"/>
						
							<linearGradient id="SVGID_00000042714126973421407590000000389080076427343005_" gradientUnits="userSpaceOnUse" x1="847.4818" y1="1566.3801" x2="1884.291" y2="2899.4197">
							<stop  offset="0" style="stop-color:#AA80F9"/>
							<stop  offset="0.9964" style="stop-color:#6165D7"/>
						</linearGradient>
						<path style="fill:url(#SVGID_00000042714126973421407590000000389080076427343005_);" d="M1266.819,2574.417l303.154-462.702
							c-90.681-66.596-148.959-170.229-148.959-287.772c0-28.401,3.436-56.093,9.899-82.748L875.64,1556.569
							c-29.824,86.719-45.926,178.989-45.926,274.573C829.713,2147.656,1004.794,2420.164,1266.819,2574.417z"/>
					</g>
					<g>
						
							<linearGradient id="SVGID_00000091722814220768648010000016659657296536273827_" gradientUnits="userSpaceOnUse" x1="3065.7654" y1="448.1536" x2="2280.4705" y2="1543.2439">
							<stop  offset="0" style="stop-color:#FF9085"/>
							<stop  offset="1" style="stop-color:#FB6FBB"/>
						</linearGradient>
						<path style="fill:url(#SVGID_00000091722814220768648010000016659657296536273827_);" d="M1949.168,1431.741
							c175.253,25.867,310.004,160.579,326.01,327.062l847.355,24.355c0-0.355,0.007-0.71,0.007-1.066
							c0-616.588-495.286-1144.26-1158.192-1212.185L1949.168,1431.741z"/>
					</g>
				</g>
				<g style="opacity:0.3;">
					
						<linearGradient id="SVGID_00000150075944413712458800000016204649081414412472_" gradientUnits="userSpaceOnUse" x1="1656.0939" y1="2372.4338" x2="2374.4863" y2="3823.4458">
						<stop  offset="0.0036" style="stop-color:#E38DDD"/>
						<stop  offset="1" style="stop-color:#9571F6"/>
					</linearGradient>
					<path style="fill:url(#SVGID_00000150075944413712458800000016204649081414412472_);" d="M1707.349,2176.308
						c-15.778-4.019-31.175-8.926-46.106-14.699l-300.397,461.339c139.625,62.521,297.362,93.151,462.357,83.749
						c133.309-7.596,258.678-40.771,371.159-93.926c-113.541-17.054-214.912-59.767-295.857-130.947
						C1806.291,2400.734,1746.488,2287.944,1707.349,2176.308z"/>
				</g>
				<g style="opacity:0.3;">
					
						<linearGradient id="SVGID_00000004547357828267734850000001834442688262050745_" gradientUnits="userSpaceOnUse" x1="1226.2952" y1="861.8896" x2="1411.7634" y2="2538.5134">
						<stop  offset="0" style="stop-color:#FFC444"/>
						<stop  offset="0.9964" style="stop-color:#F36F56"/>
					</linearGradient>
					<path style="fill:url(#SVGID_00000004547357828267734850000001834442688262050745_);" d="M1606.51,1137.476
						c-35.672-65.255-86.682-114.714-143.916-152.498c-240.834,82.424-439.212,253.476-546.958,474.903l553.164,186.862
						c38.401-66.637,97.481-121.02,168.827-155.732C1652.045,1352.503,1668.4,1250.691,1606.51,1137.476z"/>
				</g>
			</g>
			<g>
				<g>
					<polygon style="fill:#FFFFFF;" points="1989.236,2441.129 1899.637,2439.204 1899.637,2305.21 1989.236,2308.525 					"/>
					<polygon style="fill:#FFFFFF;" points="2112.436,2443.691 2022.836,2441.875 2022.836,2245.08 2112.436,2248.899 					"/>
					<polygon style="fill:#FFFFFF;" points="2231.902,2446.287 2146.036,2444.446 2146.036,2194.571 2231.902,2198.936 					"/>
				</g>
				<polygon style="fill:#FFFFFF;" points="2246.835,2501.74 1880.97,2496.418 1880.97,2466.276 2246.835,2472.843 				"/>
			</g>
			<path style="fill:#FFFFFF;" d="M1609.457,1276.713l-15.97,0.924c-1.924-14.986-6.017-29.284-11.975-42.57l13.826-9.024
				c7.901-5.157,10.57-15.684,5.917-23.517l-2.044-3.439c-4.675-7.87-14.918-9.99-22.833-4.731l-13.909,9.24
				c-9.245-11.741-20.187-22.038-32.459-30.526l7.742-15.125c4.426-8.646,1.445-19.134-6.685-23.386l-3.563-1.864
				c-8.14-4.257-18.281-0.619-22.626,8.086l-7.609,15.247c-13.771-5.097-28.447-8.172-43.666-8.924l-0.759-16.928
				c-0.433-9.669-8.208-16.973-17.346-16.271l-3.997,0.307c-9.112,0.7-16.059,9.102-15.535,18.725l0.919,16.893
				c-14.857,2.972-28.856,8.132-41.696,15.106l-8.795-13.81c-5.02-7.883-15.093-9.968-22.458-4.654l-3.216,2.322
				c-7.32,5.283-9.144,15.877-4.118,23.659l8.844,13.693c-10.837,9.914-20.192,21.35-27.765,33.917l-13.888-7.136
				c-7.889-4.053-17.218-0.707-20.816,7.439l-1.57,3.555c-3.572,8.085-0.115,17.854,7.697,21.853l13.771,7.05
				c-4.278,13.51-6.707,27.751-7.054,42.39l-14.871,0.859c-8.413,0.486-14.538,7.893-13.698,16.508l0.367,3.761
				c0.835,8.557,8.255,15.102,16.592,14.653l14.775-0.796c2.916,14.064,7.734,27.309,14.128,39.482l-11.978,7.957
				c-6.77,4.497-8.367,13.768-3.605,20.704l2.082,3.031c4.741,6.906,14.04,8.922,20.805,4.508l12.022-7.844
				c9.022,10.432,19.432,19.563,30.901,27.111l-6.334,12.689c-3.57,7.152-0.461,15.943,6.924,19.662l3.234,1.629
				c7.379,3.716,16.292,0.992,19.93-6.114l6.462-12.621c12.617,4.638,26.029,7.593,39.953,8.607l0.772,14.205
				c0.435,8.008,7.485,14.225,15.761,13.92l3.63-0.134c8.298-0.306,14.746-7.046,14.386-15.086l-0.64-14.302
				c13.908-2.172,27.18-6.27,39.549-12.017l7.862,12.173c4.448,6.888,13.891,8.936,21.129,4.578l3.179-1.915
				c7.278-4.383,9.612-13.584,5.173-20.554l-7.878-12.373c11.101-8.72,20.989-18.993,29.326-30.51l13.4,6.86
				c7.596,3.888,17.237,0.942,21.557-6.613l1.899-3.321c4.352-7.61,1.684-16.999-5.984-20.939l-13.543-6.959
				c5.468-13.165,9.161-27.292,10.759-42.067l15.772-0.851c8.971-0.484,16.256-8.1,16.256-17.048v-3.933
				C1625.875,1283.101,1618.517,1276.189,1609.457,1276.713z M1448.46,1412.002c-58.419,2.573-108.928-42.109-113.625-101.482
				c-4.853-61.353,40.69-116.005,102.63-120.242c62.792-4.295,115.359,44.92,116.587,107.999
				C1555.239,1359.271,1507.635,1409.396,1448.46,1412.002z"/>
			<g>
				<g>
					<path style="fill:#FFFFFF;" d="M2453.161,1017.39L2453.161,1017.39c7.094,0.674,12.836,7.061,12.836,14.265v24.588
						c14.184,1.584,28.389,4.05,42.614,7.393c10.488,2.465,20.906,5.399,31.254,8.801c6.2,2.039,10.425,8.299,9.793,14.755
						l-3.02,30.832c-0.801,8.18-8.887,12.984-16.5,9.59c-6.816-3.04-13.804-5.643-20.967-7.811
						c-12.498-3.782-25.678-6.247-39.548-7.39l-3.626-0.299v70.416c37.005,10.353,64.183,24.281,81.746,41.8
						c17.479,17.435,26.187,39.164,26.187,65.249c0,28.209-9.628,50.798-28.96,67.834c-19.436,17.127-46.685,26.759-81.922,28.845
						v27.138c0,7.208-5.746,12.822-12.846,12.539l-0.228-0.009c-7.114-0.283-12.892-6.375-12.892-13.608v-26.771l-5.719-0.258
						c-16.519-0.745-32.342-2.431-47.459-5.06c-11.196-1.948-22.129-4.461-32.797-7.543c-6.452-1.864-10.881-8.01-10.289-14.612
						l3.553-39.634c0.768-8.568,9.375-13.554,17.522-10.34c9.497,3.746,19.112,6.901,28.844,9.468
						c15.167,4,30.54,6.565,46.116,7.704l0.229-78.329c-35.521-8.789-62.115-21.808-79.588-39.052
						c-17.554-17.325-26.362-39.497-26.362-66.455c0-27.898,9.551-49.433,28.58-64.546c18.933-15.037,45.846-22.518,80.569-22.499
						v-25.137C2440.281,1022.026,2446.053,1016.714,2453.161,1017.39z M2440.281,1111.386c-10.978,0.799-19.539,3.813-25.666,9.049
						c-6.137,5.244-9.209,12.292-9.209,21.137c0,8.38,2.842,15.384,8.52,21.007c5.669,5.614,14.462,10.096,26.356,13.445V1111.386z
						 M2463.047,1253.223v71.83c11.934,0.024,21.085-2.826,27.473-8.54c6.377-5.704,9.562-13.762,9.562-24.18
						c0-9.499-2.96-17.376-8.886-23.641C2485.261,1262.418,2475.886,1257.262,2463.047,1253.223z"/>
				</g>
				<g>
					<path style="fill:#FFFFFF;" d="M2452.531,1501.638c-154.391,0-279.999-125.606-279.999-279.999
						s125.608-279.999,279.999-279.999c154.391,0,279.999,125.606,279.999,279.999S2606.922,1501.638,2452.531,1501.638z
						 M2452.531,964.041c-142.041,0-257.599,115.558-257.599,257.599s115.558,257.599,257.599,257.599
						c142.041,0,257.599-115.558,257.599-257.599S2594.572,964.041,2452.531,964.041z"/>
				</g>
			</g>
			<g>
				<g>
					<path style="fill:#FFFFFF;" d="M1189.293,2225.181c-108.029,0-203.956-87.169-203.956-199.646
						c0-118.822,105.535-202.33,223.351-181.991c106.467,18.38,177.965,115.678,168.73,214.151
						C1368.599,2151.738,1287.78,2225.181,1189.293,2225.181z M1207.842,1860.198c-107.544-17.749-203.476,58.681-203.953,166.859
						c-0.453,102.892,86.782,183.513,186.115,184.136c91.205,0.572,166.268-67.336,174.172-154.584
						C1372.424,1965.562,1305.853,1876.374,1207.842,1860.198z"/>
				</g>
				<g>
					<defs>
						<path id="SVGID_00000113354079980092325710000008223693243040916132_" d="M1369.001,2058.77
							c-8.25,89.875-85.298,159.724-179.353,159.43c-102.722-0.322-192.982-83.091-192.688-189.626
							c0.31-112.214,99.579-191.142,211.093-172.527C1309.35,1872.956,1377.622,1964.855,1369.001,2058.77z"/>
					</defs>
					<clipPath id="SVGID_00000037669126268848701730000006294486202317484176_">
						<use xlink:href="#SVGID_00000113354079980092325710000008223693243040916132_"  style="overflow:visible;"/>
					</clipPath>
					<g style="clip-path:url(#SVGID_00000037669126268848701730000006294486202317484176_);">
						<path style="fill:#FFFFFF;" d="M1265.509,2000.113c-2.343,35.435-32.62,61.606-68.709,58.908
							c-37.301-2.789-67.441-35.241-66.151-73c1.314-38.442,34.513-65.775,72.91-60.581
							C1240.668,1930.46,1267.891,1964.075,1265.509,2000.113z"/>
						<path style="fill:#FFFFFF;" d="M1333.606,2212.828c-10.033-59.978-64.096-112.295-137.761-116.566
							c-78.892-4.574-150.32,46.991-170.771,114.739L1333.606,2212.828z"/>
					</g>
				</g>
			</g>
		</g>
		
			<linearGradient id="SVGID_00000115494101391736787290000000812709924606193318_" gradientUnits="userSpaceOnUse" x1="3932.4902" y1="1798.593" x2="3301.4285" y2="3060.7139" gradientTransform="matrix(0.7795 0.6264 -0.6264 0.7795 -415.509 -1464.8813)">
			<stop  offset="0" style="stop-color:#FB6FBB"/>
			<stop  offset="1" style="stop-color:#FF9085"/>
		</linearGradient>
		<path style="fill:url(#SVGID_00000115494101391736787290000000812709924606193318_);" d="M727.731,2361.665
			c30.839,14.806,61.786,28.305,92.752,40.529c-41.817-93.799-73.454-190.287-94.923-287.797
			c-75.649,89.186-144.891,186.371-206.653,290.624c32.715-16.252,65.334-32.678,97.854-49.276
			c4.388,184.379,94.371,347.901,212.381,460.632c118.642,114.506,265.312,178.224,396.832,204.028
			c272.342,52.135,459.007-43.812,457.552-41.452c-213.734,32.657-401.656-11.214-543.421-78.802
			c-143.045-68.446-239.93-160.605-301.445-243.999C717.357,2483.686,728.879,2360.21,727.731,2361.665z"/>
		
			<linearGradient id="SVGID_00000054267223012462729980000016416631144925766329_" gradientUnits="userSpaceOnUse" x1="-372.4165" y1="-3832.2336" x2="-1003.4951" y2="-2570.0791" gradientTransform="matrix(-0.7814 -0.624 0.624 -0.7814 4393.8604 -2179.7749)">
			<stop  offset="0" style="stop-color:#AA80F9"/>
			<stop  offset="0.9964" style="stop-color:#6165D7"/>
		</linearGradient>
		<path style="fill:url(#SVGID_00000054267223012462729980000016416631144925766329_);" d="M3089.171,1083.449
			c-30.884-14.712-61.872-28.116-92.876-40.244c42.105,93.67,74.038,190.061,95.806,287.504
			c75.375-89.417,144.319-186.815,205.76-291.256c-32.665,16.352-65.233,32.878-97.702,49.576
			c-4.954-184.364-95.438-347.609-213.794-459.978c-118.992-114.141-265.858-177.409-397.456-202.809
			c-272.5-51.299-458.87,45.22-457.423,42.855c213.633-33.313,401.689,9.982,543.66,77.135
			c143.254,68.006,240.422,159.868,302.193,243.073C3099.171,961.396,3088.027,1084.907,3089.171,1083.449z"/>
		<g>
			<g>
				
					<linearGradient id="SVGID_00000049209609301198604840000005434334384149895331_" gradientUnits="userSpaceOnUse" x1="3171.7041" y1="1639.5956" x2="3068.6912" y2="1431.6968">
					<stop  offset="0.0036" style="stop-color:#F36F56"/>
					<stop  offset="1" style="stop-color:#FFC444"/>
				</linearGradient>
				<path style="fill:url(#SVGID_00000049209609301198604840000005434334384149895331_);" d="M3097.967,1477.135
					c0,0-28.622-9.856-36.943-19.534c-8.32-9.678,3.148-37.473-9.356-72.296c-9.087-25.307,21.101,14.065,23.96,22.874
					c2.86,8.81,4.262,32.428,26.206,48.352L3097.967,1477.135z"/>
				
					<linearGradient id="SVGID_00000182494250468516404100000003660777015522916244_" gradientUnits="userSpaceOnUse" x1="2895.6274" y1="1562.5896" x2="3025.5569" y2="2091.9304" gradientTransform="matrix(0.982 0.1889 -0.1889 0.982 579.2759 -362.4504)">
					<stop  offset="0" style="stop-color:#AA80F9"/>
					<stop  offset="0.9964" style="stop-color:#6165D7"/>
				</linearGradient>
				<path style="fill:url(#SVGID_00000182494250468516404100000003660777015522916244_);" d="M3113.53,1445.403
					c-11.045,10.509-22.091,21.019-33.135,31.528c32.781,35.774,70.386,88.495,59.44,141.377
					c-16.538,79.906-128.419,85.271-151.017,165.875c-22.894,81.661,56.516,202.499,123.501,202.427
					c85.376-0.094,199.077-196.653,150.618-360.87C3232.103,1521.249,3145.823,1464.458,3113.53,1445.403z"/>
				
					<linearGradient id="SVGID_00000049211315782433138650000014906108991059492278_" gradientUnits="userSpaceOnUse" x1="1808.9933" y1="1589.1963" x2="1796.5292" y2="1439.626" gradientTransform="matrix(0.9986 0.0537 -0.0537 0.9986 1267.6666 -55.8024)">
					<stop  offset="0" style="stop-color:#AB316D"/>
					<stop  offset="1" style="stop-color:#792D3D"/>
				</linearGradient>
				<path style="fill:url(#SVGID_00000049211315782433138650000014906108991059492278_);" d="M2952.995,1605.715
					c-10.357-20.398-14.629-20.28-17.172-31.047c-5.798-24.536,9.169-55.7,21.861-56.133c8.182-0.278,8.859,12.441,26.18,32.266
					c21.219,24.286,34.096,21.099,46.583,42.181c2.922,4.931,16.066,27.129,7.983,43.694c-10.317,21.144-50.995,24.492-67.998,8.183
					C2962.367,1637.126,2965.754,1630.846,2952.995,1605.715z"/>
				
					<linearGradient id="SVGID_00000113317487757202889490000003945597816518182045_" gradientUnits="userSpaceOnUse" x1="1764.6118" y1="1368.6853" x2="1776.5253" y2="1809.4746" gradientTransform="matrix(0.9986 0.0537 -0.0537 0.9986 1267.6666 -55.8024)">
					<stop  offset="0.0036" style="stop-color:#F36F56"/>
					<stop  offset="1" style="stop-color:#FFC444"/>
				</linearGradient>
				<path style="fill:url(#SVGID_00000113317487757202889490000003945597816518182045_);" d="M2983.489,1627.727
					c0,0-7.265,38.771-2.094,70.293c4.674,28.49,57.451,58.085,67.567,66.573c10.114,8.486-26.83,17.695-60.722,13.26
					c-33.889-4.434-126.683-34.127-140.783-50.677c-14.103-16.549,16.418-8.394,42.086-11.528
					c25.668-3.133,50.171-46.15,50.919-68.105C2941.211,1625.585,2983.489,1627.727,2983.489,1627.727z"/>
				<g>
					
						<linearGradient id="SVGID_00000036227318522101088270000002083876906838383232_" gradientUnits="userSpaceOnUse" x1="767.8181" y1="1401.0245" x2="885.3728" y2="1524.9333" gradientTransform="matrix(-0.966 -0.2584 -0.2584 0.966 4174.9497 402.9503)">
						<stop  offset="0.0036" style="stop-color:#F36F56"/>
						<stop  offset="1" style="stop-color:#FFC444"/>
					</linearGradient>
					<path style="fill:url(#SVGID_00000036227318522101088270000002083876906838383232_);" d="M2972.437,1656.663
						c0,0-25.944,11.392-48.925-6.983c-20.575-16.454,10.018-66.998,30.948-67.643c6.983-0.215,17.174,4.787,23.191,12.106
						c3.554,4.323,3.765,7.204,9.711,14.155c5.481,6.409,7.893,6.988,8.725,10.1c1.043,3.892-0.747,10.4-14.836,21.586
						c7.02-1.294,13.073,0.556,15.417,4.648c0.373,0.653,1.15,2.694,0.918,4.8
						C2996.745,1657.059,2986.781,1660.59,2972.437,1656.663z"/>
				</g>
				
					<linearGradient id="SVGID_00000021108017518032471320000001561048099347297459_" gradientUnits="userSpaceOnUse" x1="2251.6897" y1="1646.9054" x2="2179.0244" y2="1529.9323">
					<stop  offset="0.0036" style="stop-color:#F36F56"/>
					<stop  offset="1" style="stop-color:#FFC444"/>
				</linearGradient>
				<path style="fill:url(#SVGID_00000021108017518032471320000001561048099347297459_);" d="M2216.471,1545.995
					c0,0-15.557,3.107-20.815-26.84c-4.121-23.475-9.472-29.986-13.342-24.221c-3.87,5.766-0.133,18.859-0.133,18.859
					s-24.813-9.64-40.143-28.266c-15.329-18.627-14.114,1.138-12.073,12.413c2.04,11.275,26.551,39.947,36.022,43.584
					c9.469,3.636,29.667,27.177,29.667,27.177L2216.471,1545.995z"/>
				
					<linearGradient id="SVGID_00000150099232522676024640000003279742999094047893_" gradientUnits="userSpaceOnUse" x1="1319.7587" y1="3332.2705" x2="1240.7654" y2="3071.8057" gradientTransform="matrix(-0.9999 0.0138 0.0138 0.9999 3921.2695 -14.86)">
					<stop  offset="0" style="stop-color:#444B8C"/>
					<stop  offset="0.9964" style="stop-color:#26264F"/>
				</linearGradient>
				<path style="fill:url(#SVGID_00000150099232522676024640000003279742999094047893_);" d="M2722.858,3208.006
					c8.085,16.49,5.816,23.576,3.803,26.694c-5.901,9.146-20.104,0.509-57.186,4.9c-4.35,0.517-12.649,1.639-23.006-0.801
					c-8.874-2.092-19.334-6.814-18.888-9.191c0.163-0.866,1.74-1.212,2.338-1.339c10.29-2.194,74.707-21.963,74.707-21.963
					L2722.858,3208.006z"/>
				
					<linearGradient id="SVGID_00000071542986015751996890000013571248378520445876_" gradientUnits="userSpaceOnUse" x1="-179.5455" y1="2708.981" x2="-179.5455" y2="2290.5581" gradientTransform="matrix(-0.9819 -0.1895 -0.1895 0.9819 3038.6392 587.9978)">
					<stop  offset="0" style="stop-color:#FFC444"/>
					<stop  offset="0.9964" style="stop-color:#F36F56"/>
				</linearGradient>
				<path style="fill:url(#SVGID_00000071542986015751996890000013571248378520445876_);" d="M2736.816,3175.02l-10.917,29.071
					c-1.674,4.46-5.78,7.565-10.53,7.92c-4.819,0.36-10.068-1.023-10.761-8.467c-0.947-10.178,4.483-35.954,4.483-35.954
					L2736.816,3175.02z"/>
				
					<linearGradient id="SVGID_00000080890560383028817050000012762698619129067167_" gradientUnits="userSpaceOnUse" x1="776.3918" y1="3226.6616" x2="776.3918" y2="2808.2034" gradientTransform="matrix(-0.9999 0.0138 0.0138 0.9999 3921.2695 -14.86)">
					<stop  offset="0" style="stop-color:#FFC444"/>
					<stop  offset="0.9964" style="stop-color:#F36F56"/>
				</linearGradient>
				<polygon style="fill:url(#SVGID_00000080890560383028817050000012762698619129067167_);" points="3169.364,3126.434 
					3184.907,3168.877 3207.496,3165.278 3202.26,3125.978 				"/>
				
					<linearGradient id="SVGID_00000153672740866220501840000011732850003886123190_" gradientUnits="userSpaceOnUse" x1="805.4856" y1="3242.4792" x2="726.4937" y2="2982.0188" gradientTransform="matrix(-0.9999 0.0138 0.0138 0.9999 3921.2695 -14.86)">
					<stop  offset="0" style="stop-color:#444B8C"/>
					<stop  offset="0.9964" style="stop-color:#26264F"/>
				</linearGradient>
				<path style="fill:url(#SVGID_00000153672740866220501840000011732850003886123190_);" d="M3191.942,3192.253
					c10.935-12.974,20.695-11.798,22.666-20.713c1.548-7.006-2.743-15.597-9.215-18.861c-9.097-4.585-20.116,2.577-22.606,4.194
					c-16.911,10.993-12.305,28.185-28.25,35.641c-3.21,1.5-8.294,3.092-13.655,8.115c-2.275,2.134-7.915,7.416-6.594,11.055
					c1.527,4.209,11.581,4.063,21.139,3.925c11.47-0.165,17.204-0.244,22.72-3.688
					C3185.792,3207.149,3183.503,3202.265,3191.942,3192.253z"/>
				
					<linearGradient id="SVGID_00000127748292575662609640000016774846430540009374_" gradientUnits="userSpaceOnUse" x1="2264.9817" y1="2695.2444" x2="2226.553" y2="3559.8918" gradientTransform="matrix(-0.9766 0.215 0.215 0.9766 4676.793 -768.2375)">
					<stop  offset="0" style="stop-color:#311944"/>
					<stop  offset="1" style="stop-color:#893976"/>
				</linearGradient>
				<path style="fill:url(#SVGID_00000127748292575662609640000016774846430540009374_);" d="M3133.805,2240.328
					c13.184,84.825,15.908,158.99,14.251,220.247c-1.781,65.897-7.588,78.292-3.726,122.926
					c8.406,97.123,41.674,105.144,67.116,211.998c28.094,117.988,13.785,218.485,7.959,256.888
					c-5.095,33.572-11.813,61.162-17.135,80.445c-9.176,11.526-26.547,10.934-44.812,10.583
					c-26.312-106.866-53.053-207.074-79.365-313.939c-50.741-158.719-101.48-317.43-152.222-476.147
					C2995.184,2315.659,3064.494,2277.997,3133.805,2240.328z"/>
				
					<linearGradient id="SVGID_00000148640531196733886140000005545954880988351629_" gradientUnits="userSpaceOnUse" x1="2264.9817" y1="2695.2444" x2="2226.553" y2="3559.8914" gradientTransform="matrix(-0.9766 0.215 0.215 0.9766 4676.793 -768.2375)">
					<stop  offset="0" style="stop-color:#AA80F9"/>
					<stop  offset="0.9964" style="stop-color:#6165D7"/>
				</linearGradient>
				<path style="opacity:0.3;fill:url(#SVGID_00000148640531196733886140000005545954880988351629_);" d="M3157.458,3143.415
					c-26.312-106.866-53.053-207.074-79.365-313.939c-50.741-158.719-101.48-317.43-152.222-476.147
					c69.313-37.669,138.623-75.331,207.934-113.001c0.873,5.617,1.581,11.059,2.366,16.586
					c-86.973,108.823-94.165,183.709-84.249,232.07c12.027,58.655,49.578,81.935,58.949,168.458
					c6.7,61.864-9.677,75.985,0.435,131.065c13.024,70.924,50.781,105.219,73.126,143.485
					c21.595,36.983,36.988,92.155,23.947,177.034c-2.123,8.908-4.206,16.911-6.11,23.805
					C3193.094,3144.356,3175.724,3143.767,3157.458,3143.415z"/>
				
					<linearGradient id="SVGID_00000090269070217824708360000017061998537586159765_" gradientUnits="userSpaceOnUse" x1="1623.5625" y1="2726.8584" x2="771.038" y2="2688.1067" gradientTransform="matrix(-0.9999 0.0138 0.0138 0.9999 3921.2695 -14.86)">
					<stop  offset="0" style="stop-color:#311944"/>
					<stop  offset="1" style="stop-color:#893976"/>
				</linearGradient>
				<path style="fill:url(#SVGID_00000090269070217824708360000017061998537586159765_);" d="M3013.062,2343.472
					c-1.666,40.69-8.437,102.258-34.88,171.055c-35.449,92.229-74.303,114.33-90.388,191.411
					c-16.797,80.492,13.973,111.996,15.537,186.113c1.464,69.414-22.847,168.647-143.144,292.413
					c-19.496-1.772-38.991-3.545-58.487-5.317c15.636-59.986,36.409-153.536,46.86-270.603
					c5.235-58.642,5.943-101.488,6.309-117.535c2.229-97.304,16.07-262.758,67.663-561.271
					C2886.042,2267.647,2949.552,2305.558,3013.062,2343.472z"/>
				
					<linearGradient id="SVGID_00000043431861767994782340000014792622014862495624_" gradientUnits="userSpaceOnUse" x1="2685.7424" y1="1774.2134" x2="2815.6719" y2="2303.5537">
					<stop  offset="0" style="stop-color:#AA80F9"/>
					<stop  offset="0.9964" style="stop-color:#6165D7"/>
				</linearGradient>
				<path style="fill:url(#SVGID_00000043431861767994782340000014792622014862495624_);" d="M2180.638,1557.475
					c12.406-7.089,24.812-14.179,37.219-21.267c137.35,135.011,257.041,172.24,341.232,181.152
					c127.163,13.46,215.967-38.251,385.579-3.033c53.427,11.093,146.555,31.761,198.194,107.874
					c13.574,20.006,18.403,35.155,40.942,178.677c28.812,183.462,29.836,215.48,25.774,254.982
					c-7.434,72.292-11.939,116.102-45.272,154.877c-88.511,102.967-276.638,49.876-300.225,42.89
					c-43.573-12.906-111.293-32.968-138.199-90.544c-19.948-42.688,1.468-67.824,8.142-150.927
					c3.363-41.864,13.876-172.756-48.275-250.592c-44.663-55.934-106.764-59.311-167.543-78.319
					C2422.018,1853.163,2298.068,1774.213,2180.638,1557.475z"/>
				<g style="opacity:0.3;">
					
						<linearGradient id="SVGID_00000170236483379576212830000007111934542527701687_" gradientUnits="userSpaceOnUse" x1="2557.4846" y1="1770.0548" x2="3046.6445" y2="2514.4294">
						<stop  offset="0" style="stop-color:#AA80F9"/>
						<stop  offset="0.9964" style="stop-color:#6165D7"/>
					</linearGradient>
					<path style="fill:url(#SVGID_00000170236483379576212830000007111934542527701687_);" d="M3084.75,2361.696
						c-51.707-46.649-82.246-32.333-113.758-69.375c-72.845-85.632,35.55-226.561-28.372-294.145
						c-51.18-54.115-148.942,6.333-204.811-57.805c-37.054-42.541-3.68-80.191-36.584-124.2
						c-52.073-69.651-168.862-19.756-321.647-63.451c-35.969-10.287-67.829-24.056-95.646-38.953
						c83.901,102.176,166.067,148.148,234.273,169.478c60.779,19.008,122.879,22.384,167.543,78.319
						c62.151,77.836,51.638,208.728,48.275,250.592c-6.675,83.103-28.091,108.24-8.142,150.927
						c26.906,57.576,94.627,77.638,138.199,90.544c21.562,6.386,180.585,51.224,275.353-19.772
						C3126.575,2408.728,3109.043,2383.613,3084.75,2361.696z"/>
				</g>
			</g>
		</g>
		<g>
			<g>
				
					<linearGradient id="SVGID_00000029731011151728312630000008186570811531684761_" gradientUnits="userSpaceOnUse" x1="1244.7352" y1="1061.8368" x2="1295.8491" y2="849.3947">
					<stop  offset="0" style="stop-color:#311944"/>
					<stop  offset="1" style="stop-color:#893976"/>
				</linearGradient>
				<path style="fill:url(#SVGID_00000029731011151728312630000008186570811531684761_);" d="M1882.484,833.012l-1003.046-0.196
					l-15.96-0.395c-26.895-0.665-48.761-19.669-48.761-42.445V396.142c0-22.776,21.867-40.07,48.761-38.632l15.211,0.813
					l979.817,66.137c23.668,1.266,45.882,5.964,45.882,27.242v325.551L1882.484,833.012z"/>
				
					<linearGradient id="SVGID_00000145055809081225502800000003188225420613986964_" gradientUnits="userSpaceOnUse" x1="1234.938" y1="1062.1284" x2="1287.045" y2="845.5582">
					<stop  offset="0" style="stop-color:#311944"/>
					<stop  offset="1" style="stop-color:#893976"/>
				</linearGradient>
				<polygon style="opacity:0.67;fill:url(#SVGID_00000145055809081225502800000003188225420613986964_);" points="
					1748.593,544.937 989.577,511.148 989.577,464.223 1748.593,500.185 				"/>
				
					<linearGradient id="SVGID_00000056429919965568284880000002854818567771199109_" gradientUnits="userSpaceOnUse" x1="1255.7882" y1="1067.1458" x2="1307.895" y2="850.5764">
					<stop  offset="0" style="stop-color:#311944"/>
					<stop  offset="1" style="stop-color:#893976"/>
				</linearGradient>
				<polygon style="opacity:0.67;fill:url(#SVGID_00000056429919965568284880000002854818567771199109_);" points="1748.593,634.44 
					989.577,604.997 989.577,558.072 1748.593,589.689 				"/>
				
					<linearGradient id="SVGID_00000109742270261946220890000003090155693953266066_" gradientUnits="userSpaceOnUse" x1="1276.6387" y1="1072.1625" x2="1328.7454" y2="855.5935">
					<stop  offset="0" style="stop-color:#311944"/>
					<stop  offset="1" style="stop-color:#893976"/>
				</linearGradient>
				<polygon style="opacity:0.67;fill:url(#SVGID_00000109742270261946220890000003090155693953266066_);" points="
					1748.593,723.944 989.577,698.846 989.577,651.922 1748.593,679.192 				"/>
			</g>
			<g>
				
					<linearGradient id="SVGID_00000155109958318444622080000007444302992436207494_" gradientUnits="userSpaceOnUse" x1="1670.1416" y1="963.386" x2="-69.4704" y2="-1107.3136">
					<stop  offset="0" style="stop-color:#FFC444"/>
					<stop  offset="0.9964" style="stop-color:#F36F56"/>
				</linearGradient>
				<path style="fill:url(#SVGID_00000155109958318444622080000007444302992436207494_);" d="M2026.844,860.624l-1140.57-28.203
					c-26.895-0.665-48.761-19.669-48.761-42.445V396.142c0-22.776,21.867-40.07,48.761-38.632l998.108,53.377
					c23.668,1.266,42.801,19.538,42.801,40.816v325.551L2026.844,860.624z"/>
				<polygon style="opacity:0.67;fill:#FFFFFF;" points="1771.39,544.937 1012.374,511.148 1012.374,464.223 1771.39,500.185 				
					"/>
				<polygon style="opacity:0.67;fill:#FFFFFF;" points="1771.39,634.44 1012.374,604.997 1012.374,558.072 1771.39,589.689 				"/>
				<polygon style="opacity:0.67;fill:#FFFFFF;" points="1771.39,723.944 1012.374,698.846 1012.374,651.922 1771.39,679.192 				
					"/>
			</g>
		</g>
	</g>
</g>
</svg>
